<svg width="1111" height="1111" viewBox="0 0 1111 1111" fill="none" xmlns="http://www.w3.org/2000/svg">
<rect width="1111" height="1111" fill="white"/>
<path d="M68.2841 701V410.091H184.761C206.163 410.091 224.013 413.263 238.312 419.608C252.612 425.953 263.36 434.759 270.557 446.028C277.754 457.203 281.352 470.081 281.352 484.665C281.352 496.028 279.08 506.019 274.534 514.636C269.989 523.159 263.739 530.167 255.784 535.659C247.924 541.057 238.928 544.892 228.795 547.165V550.006C239.875 550.479 250.244 553.604 259.903 559.381C269.657 565.157 277.564 573.254 283.625 583.67C289.686 593.992 292.716 606.303 292.716 620.602C292.716 636.038 288.881 649.816 281.21 661.938C273.634 673.964 262.413 683.481 247.545 690.489C232.678 697.496 214.354 701 192.574 701H68.2841ZM129.79 650.716H179.932C197.072 650.716 209.572 647.449 217.432 640.915C225.292 634.286 229.222 625.479 229.222 614.494C229.222 606.445 227.28 599.343 223.398 593.188C219.515 587.032 213.975 582.203 206.778 578.699C199.676 575.195 191.201 573.443 181.352 573.443H129.79V650.716ZM129.79 531.824H175.386C183.814 531.824 191.295 530.356 197.83 527.42C204.458 524.39 209.667 520.129 213.455 514.636C217.337 509.144 219.278 502.562 219.278 494.892C219.278 484.381 215.538 475.905 208.057 469.466C200.67 463.027 190.159 459.807 176.523 459.807H129.79V531.824ZM331.601 701V482.818H390.266V520.886H392.538C396.516 507.345 403.192 497.117 412.567 490.205C421.942 483.197 432.737 479.693 444.953 479.693C447.983 479.693 451.25 479.883 454.754 480.261C458.258 480.64 461.336 481.161 463.987 481.824V535.517C461.146 534.665 457.216 533.907 452.197 533.244C447.179 532.581 442.586 532.25 438.419 532.25C429.518 532.25 421.563 534.191 414.555 538.074C407.643 541.862 402.15 547.165 398.078 553.983C394.101 560.801 392.112 568.661 392.112 577.562V701H331.601ZM584.548 705.261C562.105 705.261 542.787 700.716 526.594 691.625C510.495 682.439 498.09 669.466 489.378 652.705C480.666 635.848 476.31 615.915 476.31 592.903C476.31 570.46 480.666 550.763 489.378 533.812C498.09 516.862 510.353 503.652 526.168 494.182C542.077 484.712 560.732 479.977 582.134 479.977C596.527 479.977 609.927 482.297 622.332 486.938C634.832 491.483 645.723 498.348 655.003 507.534C664.378 516.72 671.67 528.273 676.878 542.193C682.086 556.019 684.69 572.212 684.69 590.773V607.392H500.457V569.892H627.73C627.73 561.18 625.836 553.462 622.048 546.739C618.26 540.015 613.005 534.759 606.281 530.972C599.652 527.089 591.935 525.148 583.128 525.148C573.942 525.148 565.798 527.278 558.696 531.54C551.688 535.706 546.196 541.341 542.219 548.443C538.241 555.451 536.205 563.263 536.111 571.881V607.534C536.111 618.33 538.099 627.657 542.077 635.517C546.149 643.377 551.878 649.438 559.264 653.699C566.651 657.96 575.41 660.091 585.543 660.091C592.266 660.091 598.421 659.144 604.009 657.25C609.596 655.356 614.378 652.515 618.355 648.727C622.332 644.939 625.363 640.299 627.446 634.807L683.412 638.5C680.571 651.947 674.747 663.689 665.94 673.727C657.228 683.67 645.959 691.436 632.134 697.023C618.402 702.515 602.541 705.261 584.548 705.261ZM823.611 705.261C801.168 705.261 781.849 700.716 765.656 691.625C749.558 682.439 737.152 669.466 728.44 652.705C719.728 635.848 715.372 615.915 715.372 592.903C715.372 570.46 719.728 550.763 728.44 533.812C737.152 516.862 749.416 503.652 765.23 494.182C781.139 484.712 799.795 479.977 821.196 479.977C835.59 479.977 848.99 482.297 861.395 486.938C873.895 491.483 884.785 498.348 894.065 507.534C903.44 516.72 910.732 528.273 915.94 542.193C921.149 556.019 923.753 572.212 923.753 590.773V607.392H739.52V569.892H866.793C866.793 561.18 864.899 553.462 861.111 546.739C857.323 540.015 852.067 534.759 845.344 530.972C838.715 527.089 830.997 525.148 822.19 525.148C813.005 525.148 804.861 527.278 797.759 531.54C790.751 535.706 785.259 541.341 781.281 548.443C777.304 555.451 775.268 563.263 775.173 571.881V607.534C775.173 618.33 777.162 627.657 781.139 635.517C785.211 643.377 790.94 649.438 798.327 653.699C805.713 657.96 814.473 660.091 824.605 660.091C831.329 660.091 837.484 659.144 843.071 657.25C848.658 655.356 853.44 652.515 857.418 648.727C861.395 644.939 864.425 640.299 866.509 634.807L922.474 638.5C919.634 651.947 913.81 663.689 905.003 673.727C896.291 683.67 885.022 691.436 871.196 697.023C857.465 702.515 841.603 705.261 823.611 705.261ZM1035.54 410.091L1030 613.784H978.014L972.332 410.091H1035.54ZM1004.01 704.693C994.634 704.693 986.584 701.379 979.861 694.75C973.137 688.027 969.823 679.977 969.918 670.602C969.823 661.322 973.137 653.367 979.861 646.739C986.584 640.11 994.634 636.795 1004.01 636.795C1013 636.795 1020.91 640.11 1027.73 646.739C1034.55 653.367 1038 661.322 1038.1 670.602C1038 676.852 1036.35 682.581 1033.13 687.79C1030 692.903 1025.88 697.023 1020.77 700.148C1015.66 703.178 1010.07 704.693 1004.01 704.693Z" fill="#6366F1"/>
</svg>
