<svg width="95" height="95" viewBox="0 0 95 95" fill="none" xmlns="http://www.w3.org/2000/svg">
<path d="M52.5126 9C24.4692 9 5.36296 37.8344 15.9437 64.1886L20.467 75.4551C20.8717 76.4633 20.5759 77.6215 19.7394 78.3032L10.1746 86.098C9.37197 86.7521 9.06357 87.8489 9.40522 88.8343C9.74686 89.8196 10.6641 90.4789 11.6935 90.4789H49.6342C73.0322 90.4789 92 71.2311 92 47.4878C92 26.2316 75.0191 9 54.072 9H52.5126Z" fill="#6C5FBC" stroke="#6C5FBC" stroke-width="5" stroke-linejoin="round"/>
<path d="M44.9346 12.7605C17.741 12.7605 -0.786294 40.7077 9.47378 66.251L13.86 77.1709C14.2525 78.148 13.9656 79.2706 13.1545 79.9313L3.8795 87.4863C3.10123 88.1202 2.80218 89.1833 3.13347 90.1383C3.46475 91.0934 4.35424 91.7323 5.35241 91.7323H42.1434C64.8323 91.7323 83.2253 73.0768 83.2253 50.0641C83.2253 29.4619 66.759 12.7605 46.4468 12.7605H44.9346Z" fill="#DBD9EE" stroke="#6C5FBC" stroke-width="5" stroke-linejoin="round"/>
<path d="M44.0063 67.576C41.2329 67.576 38.7369 67.0853 36.5183 66.104C34.3423 65.08 32.6143 63.7147 31.3343 62.008C30.0543 60.2587 29.3716 58.3173 29.2863 56.184H36.8383C36.9663 57.6773 37.6703 58.936 38.9503 59.96C40.2729 60.9413 41.9156 61.432 43.8783 61.432C45.9263 61.432 47.5049 61.048 48.6143 60.28C49.7663 59.4693 50.3423 58.4453 50.3423 57.208C50.3423 55.8853 49.7023 54.904 48.4223 54.264C47.1849 53.624 45.2009 52.92 42.4703 52.152C39.8249 51.4267 37.6703 50.7227 36.0063 50.04C34.3423 49.3573 32.8916 48.312 31.6543 46.904C30.4596 45.496 29.8623 43.64 29.8623 41.336C29.8623 39.4587 30.4169 37.752 31.5263 36.216C32.6356 34.6373 34.2143 33.4 36.2623 32.504C38.3529 31.608 40.7423 31.16 43.4303 31.16C47.4409 31.16 50.6623 32.184 53.0943 34.232C55.5689 36.2373 56.8916 38.9893 57.0623 42.488H49.7663C49.6383 40.9093 48.9983 39.6507 47.8463 38.712C46.6943 37.7733 45.1369 37.304 43.1743 37.304C41.2543 37.304 39.7823 37.6667 38.7583 38.392C37.7343 39.1173 37.2223 40.0773 37.2223 41.272C37.2223 42.2107 37.5636 43 38.2463 43.64C38.9289 44.28 39.7609 44.792 40.7423 45.176C41.7236 45.5173 43.1743 45.9653 45.0943 46.52C47.6543 47.2027 49.7449 47.9067 51.3663 48.632C53.0303 49.3147 54.4596 50.3387 55.6543 51.704C56.8489 53.0693 57.4676 54.8827 57.5103 57.144C57.5103 59.1493 56.9556 60.9413 55.8463 62.52C54.7369 64.0987 53.1583 65.336 51.1103 66.232C49.1049 67.128 46.7369 67.576 44.0063 67.576Z" fill="#6C5FBC"/>
</svg>
